<svg width="536" height="769" viewBox="0 0 536 769" fill="none" xmlns="http://www.w3.org/2000/svg">
<path d="M401.162 593.665C432.876 551.335 466.045 498.52 486.828 457.219L486.83 457.216C518.832 393.741 530.026 351.314 530.028 296.013C529.896 245.235 525.151 215.057 511.413 178.422L511.41 178.414L511.407 178.407C505.012 161.179 492.124 136.058 481.934 120.773C441.829 60.6155 377.259 17.4917 312.227 6.93542L312.225 6.93518C304.488 5.677 285.921 5 267.111 5C248.257 5 230.196 5.6817 223.389 6.91937C201.521 10.9561 175.473 20.1114 154.161 31.3556C74.2912 73.5796 20.7294 154.471 7.31729 253.86C2.60845 289.309 5.08386 326.666 14.6734 364.367C22.1761 393.851 30.9805 417.267 46.7288 449.823C76.5131 511.377 134.497 596.162 180.422 645.528L180.428 645.534L180.434 645.541C189.811 655.693 204.207 667.916 217.421 677.62C224.015 682.463 230.213 686.604 235.248 689.509C237.771 690.965 239.918 692.062 241.624 692.78C242.475 693.138 243.155 693.375 243.671 693.518C244.219 693.669 244.419 693.667 244.361 693.667C246.503 693.667 248.225 694.662 249.262 695.446C250.395 696.304 251.39 697.419 252.115 698.627L252.214 698.792L252.3 698.964C253.536 701.437 253.078 704.112 252.56 705.977C251.982 708.055 250.925 710.488 249.494 713.28C246.616 718.897 241.758 726.851 234.557 737.919C232.196 741.577 230.476 744.338 229.306 746.443C229.189 746.652 229.08 746.852 228.977 747.043C230.278 747.122 231.57 747.307 232.743 747.584C233.544 747.773 234.378 748.026 235.163 748.364C235.803 748.639 236.672 749.081 237.469 749.788C237.537 749.818 237.637 749.86 237.775 749.912C238.355 750.131 239.31 750.414 240.822 750.758C243.834 751.445 248.493 752.254 255.599 753.316C256.663 753.46 257.696 753.61 258.574 753.804L258.893 753.874L259.2 753.985C262.329 755.116 267.274 756.816 271.897 758.225C274.212 758.931 276.394 759.547 278.202 759.983C280.161 760.455 281.235 760.6 281.561 760.6H282.116L282.657 760.722L291.88 762.794L295.092 759.664L298.628 763.2L295.138 759.619L295.117 759.64C298.595 756.174 305.77 751.505 311.325 748.728C314.588 747.096 316.703 745.854 317.974 744.907C318.006 744.883 318.036 744.86 318.066 744.838M401.162 593.665C401.161 593.666 401.16 593.667 401.16 593.669L405.161 596.667L401.165 593.662C401.164 593.663 401.163 593.664 401.162 593.665ZM401.162 593.665C381.675 619.581 362.85 641.3 345.606 657.935C328.296 674.634 312.843 685.954 300.125 691.404L300.111 691.41L300.096 691.416C297.365 692.607 295.04 693.828 293.319 695.136C291.864 696.242 289.494 698.414 289.494 701.733C289.494 702.998 289.859 704.16 290.154 704.952C290.484 705.839 290.929 706.78 291.434 707.736C292.446 709.651 293.877 711.959 295.632 714.562C299.156 719.787 304.215 726.539 310.46 734.328L310.482 734.354L310.503 734.381C313.566 738.096 315.786 741.112 317.178 743.327C317.549 743.918 317.841 744.42 318.066 744.838M318.066 744.838C318.632 744.409 318.875 744.149 318.946 744.062C318.948 744.059 318.95 744.057 318.952 744.055M318.066 744.838C318.266 745.209 318.413 745.512 318.514 745.752C318.572 745.888 318.607 745.984 318.627 746.044M318.952 744.055C318.957 744.048 318.959 744.045 318.959 744.045C318.959 744.045 318.957 744.048 318.952 744.055ZM318.952 744.055C318.911 744.112 318.707 744.424 318.619 744.973C318.617 744.984 318.616 744.996 318.614 745.007C318.613 745.013 318.612 745.02 318.611 745.026C318.541 745.528 318.594 745.892 318.627 746.044M318.627 746.044C318.644 746.098 318.65 746.123 318.648 746.122C318.646 746.121 318.638 746.094 318.627 746.044Z" fill="#A9307F" stroke="black" stroke-width="10"/>
</svg>
