<svg width="536" height="769" viewBox="0 0 536 769" fill="none" xmlns="http://www.w3.org/2000/svg">
<path d="M183.728 642.475L183.717 642.463C138.1 593.428 80.37 509.016 50.7797 447.863C35.138 415.528 26.4496 392.398 19.0346 363.258L183.728 642.475ZM183.728 642.475L183.74 642.488M183.728 642.475L183.74 642.488M183.74 642.488C192.855 652.358 207.008 664.39 220.084 673.993C226.598 678.777 232.652 682.816 237.497 685.611C239.93 687.015 241.899 688.013 243.37 688.632C244.241 688.999 244.711 689.134 244.859 689.177C248.143 689.32 250.63 690.838 251.977 691.858C253.575 693.067 254.957 694.617 255.974 696.312L256.162 696.625M183.74 642.488L256.162 696.625M256.162 696.625L256.325 696.951M256.162 696.625L256.325 696.951M256.325 696.951C258.344 700.99 257.481 705.075 256.895 707.183C256.197 709.694 254.98 712.443 253.499 715.332C250.505 721.174 245.535 729.297 238.333 740.368C237.497 741.663 236.75 742.832 236.085 743.89C236.37 743.994 236.657 744.107 236.943 744.231C237.637 744.53 238.663 745.026 239.725 745.825C240.131 745.953 240.797 746.137 241.823 746.371C244.65 747.015 249.154 747.802 256.234 748.861C257.283 749.003 258.472 749.174 259.541 749.409L260.147 749.542L260.73 749.753C263.808 750.866 268.677 752.539 273.209 753.92C275.482 754.613 277.569 755.202 279.256 755.608C280.54 755.917 281.242 756.032 281.503 756.075C281.643 756.098 281.655 756.1 281.561 756.1H282.615M256.325 696.951L282.615 756.1M282.615 756.1L283.644 756.331M282.615 756.1L283.644 756.331M283.644 756.331L290.486 757.869L291.959 756.434C295.923 752.492 303.556 747.581 309.313 744.703C310.261 744.229 311.089 743.799 311.809 743.409C310.601 741.713 309.016 739.651 307.031 737.244L306.99 737.193M283.644 756.331L306.99 737.193M306.99 737.193L306.949 737.142M306.99 737.193L306.949 737.142M306.949 737.142C300.664 729.303 295.521 722.445 291.901 717.078C290.103 714.412 288.574 711.955 287.455 709.838C286.898 708.784 286.358 707.655 285.936 706.521C285.582 705.57 284.994 703.807 284.994 701.733C284.994 696.147 288.956 692.8 290.596 691.553C292.741 689.923 295.449 688.533 298.298 687.291L298.325 687.28M306.949 737.142L298.325 687.28M298.325 687.28L298.352 687.268M298.325 687.28L298.352 687.268M298.352 687.268C310.337 682.132 325.328 671.245 342.482 654.696C359.511 638.268 378.181 616.74 397.568 590.957C429.144 548.811 462.162 496.225 482.808 455.196L482.812 455.19M298.352 687.268L482.812 455.19M482.812 455.19C514.58 392.179 525.528 350.444 525.528 296.002C525.395 245.619 520.699 216.002 507.199 180.002L507.194 179.987M482.812 455.19L507.194 179.987M507.194 179.987L507.188 179.973M507.194 179.987L507.188 179.973M507.188 179.973C500.918 163.08 488.191 138.271 478.19 123.27C438.71 64.0494 375.187 21.7143 311.506 11.3773L311.503 11.3768M507.188 179.973L311.503 11.3768M311.503 11.3768C304.181 10.1863 285.975 9.5 267.111 9.5C248.182 9.5 230.562 10.1938 224.213 11.3433C202.823 15.291 177.205 24.2866 156.268 35.332M311.503 11.3768L156.268 35.332M156.268 35.332C77.829 76.7979 25.018 156.336 11.7767 254.464C7.1515 289.294 9.57515 326.068 19.0343 363.257L156.268 35.332ZM239.231 745.647C239.229 745.647 239.261 745.662 239.332 745.69C239.269 745.66 239.233 745.646 239.231 745.647Z" fill="#7526AA" stroke="black" stroke-width="19"/>
</svg>
